<svg width="813" height="222" viewBox="0 0 813 222" fill="none" xmlns="http://www.w3.org/2000/svg">
<path d="M296.999 170H268.164L312.1 42.7273H346.777L390.651 170H361.816L329.936 71.8111H328.941L296.999 170ZM295.197 119.973H363.308V140.978H295.197V119.973ZM405.473 205.795V74.5455H431.574V90.5788H432.754C433.914 88.0102 435.592 85.4001 437.788 82.7486C440.025 80.0556 442.925 77.8184 446.488 76.0369C450.093 74.214 454.567 73.3026 459.912 73.3026C466.872 73.3026 473.294 75.1255 479.177 78.7713C485.06 82.3757 489.762 87.8237 493.284 95.1154C496.805 102.366 498.566 111.46 498.566 122.397C498.566 133.045 496.847 142.035 493.408 149.368C490.011 156.66 485.37 162.19 479.487 165.961C473.646 169.689 467.1 171.554 459.85 171.554C454.712 171.554 450.341 170.704 446.737 169.006C443.174 167.307 440.253 165.173 437.975 162.605C435.696 159.995 433.956 157.364 432.754 154.712H431.947V205.795H405.473ZM431.387 122.273C431.387 127.949 432.174 132.9 433.749 137.125C435.323 141.351 437.602 144.645 440.585 147.006C443.568 149.326 447.193 150.487 451.46 150.487C455.769 150.487 459.415 149.306 462.398 146.944C465.381 144.541 467.638 141.227 469.171 137.001C470.746 132.734 471.533 127.824 471.533 122.273C471.533 116.763 470.766 111.915 469.233 107.731C467.701 103.546 465.443 100.273 462.46 97.9119C459.477 95.5504 455.81 94.3697 451.46 94.3697C447.151 94.3697 443.506 95.509 440.523 97.7876C437.581 100.066 435.323 103.298 433.749 107.482C432.174 111.667 431.387 116.597 431.387 122.273ZM516.215 205.795V74.5455H542.316V90.5788H543.497C544.657 88.0102 546.335 85.4001 548.53 82.7486C550.768 80.0556 553.668 77.8184 557.231 76.0369C560.835 74.214 565.309 73.3026 570.654 73.3026C577.614 73.3026 584.036 75.1255 589.919 78.7713C595.802 82.3757 600.504 87.8237 604.026 95.1154C607.547 102.366 609.308 111.46 609.308 122.397C609.308 133.045 607.589 142.035 604.15 149.368C600.753 156.66 596.113 162.19 590.23 165.961C584.388 169.689 577.842 171.554 570.592 171.554C565.454 171.554 561.084 170.704 557.479 169.006C553.916 167.307 550.995 165.173 548.717 162.605C546.438 159.995 544.698 157.364 543.497 154.712H542.689V205.795H516.215ZM542.129 122.273C542.129 127.949 542.917 132.9 544.491 137.125C546.065 141.351 548.344 144.645 551.327 147.006C554.31 149.326 557.935 150.487 562.202 150.487C566.511 150.487 570.157 149.306 573.14 146.944C576.123 144.541 578.381 141.227 579.914 137.001C581.488 132.734 582.275 127.824 582.275 122.273C582.275 116.763 581.509 111.915 579.976 107.731C578.443 103.546 576.185 100.273 573.202 97.9119C570.219 95.5504 566.552 94.3697 562.202 94.3697C557.894 94.3697 554.248 95.509 551.265 97.7876C548.323 100.066 546.065 103.298 544.491 107.482C542.917 111.667 542.129 116.597 542.129 122.273ZM653.431 42.7273V170H626.957V42.7273H653.431ZM674.638 170V74.5455H701.112V170H674.638ZM687.937 62.2408C684.001 62.2408 680.624 60.9357 677.807 58.3256C675.031 55.6741 673.644 52.5047 673.644 48.8175C673.644 45.1716 675.031 42.0437 677.807 39.4336C680.624 36.7821 684.001 35.4563 687.937 35.4563C691.873 35.4563 695.229 36.7821 698.004 39.4336C700.822 42.0437 702.23 45.1716 702.23 48.8175C702.23 52.5047 700.822 55.6741 698.004 58.3256C695.229 60.9357 691.873 62.2408 687.937 62.2408ZM744.442 74.5455L761.967 107.917L779.927 74.5455H807.084L779.43 122.273L807.83 170H780.797L761.967 137.001L743.448 170H716.104L744.442 122.273L717.098 74.5455H744.442Z" fill="white"/>
<path d="M166 11C190.853 11 211 31.1472 211 56V177C211 201.853 190.853 222 166 222H45C20.1472 222 5.63801e-08 201.853 0 177V56C0 31.1472 20.1472 11 45 11H166ZM59 50C47.9543 50 39 58.9543 39 70V163C39 174.046 47.9543 183 59 183H152C163.046 183 172 174.046 172 163V70C172 58.9543 163.046 50 152 50H59Z" fill="white"/>
<rect x="72" y="83" width="68" height="68" rx="15" fill="white"/>
</svg>
