<svg width="21" height="21" viewBox="0 0 21 21" fill="none" xmlns="http://www.w3.org/2000/svg">
<path d="M17.4337 0.433685C19.0905 0.43371 20.4337 1.77685 20.4337 3.43369V17.4337C20.4337 19.0905 19.0905 20.4337 17.4337 20.4337H3.43372C1.77688 20.4337 0.43374 19.0905 0.433716 17.4337V3.43369C0.433717 1.77683 1.77686 0.433685 3.43372 0.433685H17.4337ZM5.13 4.12997C4.57802 4.13017 4.13021 4.57799 4.13 5.12997V15.7374C4.13024 16.2894 4.57803 16.7372 5.13 16.7374H15.7374C16.2894 16.7372 16.7372 16.2893 16.7374 15.7374V5.12997C16.7372 4.57801 16.2894 4.13021 15.7374 4.12997H5.13Z" fill="#1563FF"/>
<rect x="7.2583" y="7.2583" width="6.44548" height="6.44548" rx="1" fill="#1563FF"/>
</svg>
