<svg width="1051" height="301" viewBox="0 0 1051 301" fill="none" xmlns="http://www.w3.org/2000/svg">
<path d="M119.002 9.4953C121.108 9.4953 122.161 10.5484 124.268 11.6015C111.63 16.8671 98.9929 30.5576 92.6742 60.0449L69.5056 66.3636C76.8774 45.3012 91.6211 9.4953 119.002 9.4953ZM130.586 20.0265C132.693 26.3452 134.799 33.717 134.799 45.3012C134.799 46.3544 134.799 46.3544 134.799 47.4075L104.258 55.8324C110.577 33.717 121.108 24.2389 130.586 20.0265ZM157.967 38.9825L144.277 43.195C144.277 42.1419 144.277 41.0888 144.277 40.0357C144.277 30.5576 143.224 23.1858 141.118 16.8671C148.489 18.9733 154.808 28.4514 157.967 38.9825ZM226.42 55.8324C226.42 54.7793 225.367 53.7262 224.314 53.7262C222.207 53.7262 200.092 51.6199 200.092 51.6199C200.092 51.6199 184.295 35.8232 182.189 34.7701C180.083 32.6638 176.923 33.717 175.87 33.717C175.87 33.717 172.711 34.7701 167.445 36.8763C162.18 22.1327 152.702 8.44219 136.905 8.44219H135.852C131.639 2.12349 125.321 0.0172635 120.055 0.0172635C82.143 -1.03585 64.2401 46.3544 57.9214 70.576C49.4964 72.6822 41.0715 75.8416 31.5935 79.0009C23.1685 81.1072 23.1685 82.1603 22.1154 89.5321C21.0623 94.7977 0 261.19 0 261.19L167.445 292.783L258.013 272.774C258.013 272.774 226.42 57.9386 226.42 55.8324Z" fill="#9CA3AF"/>
<path d="M223.261 53.7261C222.208 53.7261 200.092 51.6198 200.092 51.6198C200.092 51.6198 184.295 35.8231 182.189 34.77C181.136 33.7169 181.136 33.7169 180.083 33.7169L167.446 292.783L258.014 272.774C258.014 272.774 226.42 57.9385 226.42 55.8323C226.42 54.7792 224.314 53.7261 223.261 53.7261Z" fill="#7C8594"/>
<path d="M136.904 104.276L125.32 137.975C125.32 137.975 115.842 132.71 103.205 132.71C85.3018 132.71 84.2487 143.241 84.2487 146.4C84.2487 161.144 124.267 167.463 124.267 203.268C124.267 231.703 106.364 249.606 82.1425 249.606C53.7083 249.606 38.9647 231.703 38.9647 231.703L46.3365 206.428C46.3365 206.428 61.0802 219.065 73.7175 219.065C82.1425 219.065 85.3018 212.746 85.3018 207.481C85.3018 187.472 52.6552 186.419 52.6552 153.772C52.6552 126.391 72.6644 100.063 111.63 100.063C129.533 99.01 136.904 104.276 136.904 104.276Z" fill="#FFFFFE"/>
<path d="M364.378 166.41C354.9 161.144 350.688 156.932 350.688 151.666C350.688 144.294 357.006 140.082 367.537 140.082C379.122 140.082 389.653 145.347 389.653 145.347L398.078 120.073C398.078 120.073 390.706 113.754 368.591 113.754C336.997 113.754 315.935 131.657 315.935 156.932C315.935 171.675 326.466 182.206 339.103 189.578C349.635 195.897 353.847 200.109 353.847 206.428C353.847 212.747 348.581 219.065 338.05 219.065C323.307 219.065 308.563 211.694 308.563 211.694L300.138 236.968C300.138 236.968 312.775 245.393 334.891 245.393C366.484 245.393 389.653 229.597 389.653 201.162C389.653 185.366 378.069 173.781 364.378 166.41ZM491.805 112.701C476.008 112.701 463.371 120.073 453.893 131.657L467.583 60.0449H431.778L397.025 242.234H432.831L444.415 180.1C448.627 156.932 461.265 142.188 472.849 142.188C481.274 142.188 484.433 147.454 484.433 155.878C484.433 161.144 484.433 166.41 483.38 171.675L469.69 243.287H505.496L519.186 169.569C520.239 162.197 521.292 152.719 521.292 146.4C521.292 125.338 510.761 112.701 491.805 112.701ZM583.426 216.959C570.789 216.959 566.576 206.428 566.576 193.791C566.576 173.781 577.107 140.082 596.064 140.082C608.701 140.082 612.913 150.613 612.913 161.144C612.913 184.313 602.382 216.959 583.426 216.959ZM601.329 112.701C558.151 112.701 529.717 151.666 529.717 194.844C529.717 222.225 546.567 244.34 579.214 244.34C621.338 244.34 649.772 206.428 649.772 162.197C649.772 136.922 635.029 112.701 601.329 112.701ZM706.641 218.012C697.163 218.012 691.897 212.747 691.897 212.747L698.216 179.047C702.428 156.932 714.013 142.188 726.65 142.188C737.181 142.188 741.394 152.719 741.394 162.197C740.34 185.366 726.65 218.012 706.641 218.012ZM741.394 112.701C717.172 112.701 703.481 133.763 703.481 133.763L705.588 114.807H673.994C672.941 127.444 669.782 147.454 666.622 162.197L641.348 292.783H677.154L686.632 240.128H687.685C687.685 240.128 695.057 244.34 708.747 244.34C750.872 244.34 778.253 201.162 778.253 157.985C778.253 134.816 767.721 112.701 741.394 112.701ZM828.802 62.1511C817.218 62.1511 808.793 71.6292 808.793 83.2135C808.793 93.7446 815.112 101.116 825.643 101.116C837.227 101.116 846.705 93.7446 846.705 80.0541C846.705 69.5229 839.333 62.1511 828.802 62.1511ZM779.306 242.234H815.112L839.333 115.86H803.527L779.306 242.234ZM929.901 115.86H904.627L905.68 109.541C907.786 96.904 915.158 86.3728 926.742 86.3728C933.061 86.3728 938.326 88.479 938.326 88.479L945.698 60.0449C945.698 60.0449 939.379 56.8856 926.742 56.8856C914.105 56.8856 901.467 60.0449 891.989 68.4698C879.352 79.001 874.086 93.7446 870.927 108.488L869.874 114.807H853.024L847.758 142.188H864.608L845.652 242.234H881.458L900.414 142.188H924.636L929.901 115.86ZM1015.2 115.86C1015.2 115.86 993.088 171.675 982.557 202.216C981.504 192.737 974.132 115.86 974.132 115.86H936.22L957.282 231.703C957.282 233.809 957.282 235.915 956.229 238.021C952.017 246.446 944.645 253.818 937.273 259.084C930.954 264.349 922.529 267.509 917.264 269.615L926.742 300.155C934.114 299.102 948.857 292.783 961.495 281.199C977.292 266.456 993.088 242.234 1007.83 210.64L1051.01 116.913L1015.2 115.86Z" fill="#9CA3AF"/>
</svg>
