<svg width="1082" height="210" viewBox="0 0 1082 210" fill="none" xmlns="http://www.w3.org/2000/svg">
<path fill-rule="evenodd" clip-rule="evenodd" d="M735.08 95.61C736.91 95.05 739.14 94.76 740.97 94.76H771.2C782.56 94.76 800.41 91.1 804.33 78.49C804.77 77.06 804.99 75.59 804.99 74.1C804.99 68.97 802.08 64.49 798.1 61.44C792.04 56.79 783.77 55.33 776.31 55.33C754.13 55.33 738.65 75.17 735.08 95.61ZM415.1 104.5C412.68 105.41 410.11 105.79 407.53 105.77L380.63 105.56C367.63 105.46 349.87 112.25 346.62 126.34C346.32 127.62 346.17 128.93 346.17 130.24C346.17 131.85 346.39 133.44 346.82 134.99C350.6 148.62 367.86 154.92 380.63 154.92C393.39 154.92 410.77 148.48 414.47 134.84C414.88 133.34 415.09 131.79 415.09 130.24V104.5H415.1ZM249.26 55.33V155.15C252.09 154.15 255.18 153.87 258.16 153.87H267.27C294.61 153.87 318.84 132.9 318.84 104.92C318.84 76.9 294.82 55.34 267.27 55.34H249.26V55.33ZM1037.06 166.77C1016.26 166.77 1003.19 161.67 990.48 145.49L990.2 145.13L999.81 138.29L1000.07 138.62C1002.67 141.93 1005.43 145.25 1008.76 147.86C1016.71 154.09 1027.1 154.92 1036.85 154.92C1052.15 154.92 1069.09 148.91 1069.09 131.09C1069.09 128.24 1068.44 125.55 1066.91 123.13C1061.48 114.54 1045.11 111.33 1035.86 109.14C1017.72 104.86 993.51 98.73 993.51 75.79C993.51 52.9 1013.89 43.9 1034.18 43.9C1051.51 43.9 1064.13 51.37 1074.98 64.75L1075.27 65.11L1065.66 71.95L1065.4 71.63C1056.23 60.2 1047.89 55.12 1033.29 55.12C1020.01 55.12 1005.28 60.31 1005.28 75.79C1005.28 78.8 1005.97 81.62 1007.6 84.16C1013.18 92.86 1029.54 96.14 1038.95 98.37C1056.72 102.59 1081.08 109 1081.08 131.51C1081.07 156.11 1059.1 166.77 1037.06 166.77ZM946.36 47.08C949.19 46.08 952.28 45.8 955.26 45.8H981.26V57.23H955.26C951.29 57.23 946.36 58.78 946.36 63.55V119.9C946.58 138.85 961.53 155.35 980.82 155.35H981.26V166.78H980.82C955.04 166.78 934.37 145.29 934.37 119.69V0.410004H946.36V47.08ZM917.02 166.77H905.47V90.98C905.47 71.9 890.6 55.54 871.23 55.54C851.86 55.54 836.99 71.91 836.99 90.98V166.77H825V90.98C825 65.55 845.31 43.89 871.01 43.89C896.7 43.89 917.02 65.55 917.02 90.98V166.77ZM776.31 166.77C770.66 166.77 765.07 165.81 759.75 163.93C735.1 155.25 722.08 130.49 722.08 105.33C722.08 74.98 744.07 43.89 776.31 43.89C791.5 43.89 809.67 49.59 815.42 65.21C816.47 68.06 816.99 71.05 816.99 74.09C816.99 77.34 816.4 80.53 815.21 83.56C808.58 100.37 787.29 105.98 770.99 105.98H740.54C736.53 105.98 734.53 108.62 734.53 112.51C734.53 125.03 741.85 137.77 751.27 145.68C758.33 151.62 767 155.34 776.32 155.34C790.69 155.34 800.63 150.46 809.54 139.04L809.8 138.71L819.41 145.55L819.12 145.91C807.69 160.38 795.13 166.77 776.31 166.77ZM623.6 67.68C631.64 53.06 647.15 43.89 663.83 43.89C689.53 43.89 710.28 65.49 710.28 90.98V166.77H698.29V90.98C698.29 71.9 683.42 55.54 664.05 55.54C644.69 55.54 629.81 71.91 629.81 90.98V166.77H617.82V90.98C617.82 71.9 602.95 55.54 583.58 55.54C564.22 55.54 549.34 71.91 549.34 90.98V166.77H537.35V90.98C537.35 65.55 557.66 43.89 583.36 43.89C599.95 43.9 615.61 53.16 623.6 67.68ZM484.79 150.68L526.83 43.9H539.33L485.75 179.59C479.05 196.55 462.9 209.84 444.22 209.84H438.45V198.83H444.22C459.58 198.83 476.23 185.05 476.23 169.08C476.23 162.86 473.88 152.86 471.59 147.08L430.9 43.9H443.4L482.41 143.18C483.29 145.5 484.2 148.15 484.79 150.68ZM380.64 166.77C362.66 166.77 341.29 157.41 335.66 138.96C334.84 136.27 334.42 133.48 334.42 130.66C334.42 128.17 334.76 125.7 335.41 123.29C340.58 104.37 362.43 94.55 380.64 94.55H407.54C412.45 94.55 414.66 91.92 414.66 86.97V80C414.66 78.12 414.38 76.26 413.85 74.46C409.95 61.44 394.73 55.32 382.21 55.32C369.09 55.32 359.25 61.44 351.21 71.62L350.95 71.95L341.34 65.11L341.63 64.75C352.11 51.55 365.47 43.9 382.43 43.9C400.03 43.9 419.76 53.46 425.31 71.23C426.2 74.08 426.66 77.03 426.66 80.01V130.67C426.66 133.5 426.23 136.3 425.41 139C419.77 157.34 398.55 166.77 380.64 166.77ZM237.27 43.9H267.27C300.55 43.9 331.06 70.45 331.06 104.49C331.06 138.42 300.45 165.08 267.27 165.08H258.16C252.92 165.08 249.26 166.22 249.26 171.82V209.83H237.27V43.9Z" fill="#9CA3AF"/>
<path fill-rule="evenodd" clip-rule="evenodd" d="M0.210036 63.28C0.250036 39.02 21.61 24.83 42.39 24.83C63.17 24.83 84.43 41.23 84.38 65.49C84.33 98.07 84.75 117.35 84.7 149.89C84.65 178.73 102.27 193.6 127.36 192.02C163.48 189.75 192.17 157.71 192.23 117.9L192.32 52.24C192.34 38.31 179.6 29.74 167.82 29.74C156.04 29.74 143.27 38.31 143.24 52.24L143.1 149.89C143.08 163.84 140.4 175.01 132.83 184.04C126.15 192.01 115.52 187.47 116.04 179.77C116.25 176.66 117.73 174.9 119.62 172.56C124.2 166.89 125.41 161.18 125.42 149.89L125.56 50.85C125.6 26.59 146.96 12.4 167.74 12.4C188.52 12.4 209.87 28 209.83 52.26L209.91 117.9C209.82 167.64 173.15 206.43 128.46 209.24C93.99 211.41 66.95 189.8 67.02 149.89C67.08 117.81 66.9 96.79 66.96 64.67C66.99 50.74 54.24 42.17 42.46 42.17C30.68 42.17 17.91 50.74 17.88 64.67C17.85 86.09 18.04 96.44 18 117.9C17.97 135.55 24.01 151.95 34.44 165.34C43.86 177.43 58.52 184.79 72.13 190.35C77.44 192.52 81.74 198.35 78.95 203.79C77.33 206.95 73.78 209.22 66.46 206.76C50.63 201.45 32.17 190.88 20.41 175.79C7.69004 159.47 0.280036 139.42 0.320036 117.9C0.360036 95.98 0.170036 85.17 0.210036 63.28Z" fill="#9CA3AF"/>
</svg>
